<svg width="40" height="40" viewBox="0 0 44 44" fill="none" xmlns="http://www.w3.org/2000/svg">
<path d="M22 2.29163C17.3186 2.28922 12.7891 3.95334 9.22275 6.986C5.65639 10.0187 3.28601 14.2218 2.53606 18.8428C1.78612 23.4638 2.70558 28.2008 5.12982 32.2057C7.55405 36.2106 11.3247 39.2217 15.7667 40.7C16.7567 40.8833 17.1142 40.2783 17.1142 39.7833V36.4375C11.6142 37.6291 10.4775 33.7975 10.4775 33.7975C10.1137 32.5851 9.32218 31.546 8.25 30.8733C6.4625 29.6541 8.3875 29.6725 8.3875 29.6725C9.01189 29.7599 9.6081 29.9886 10.1307 30.3412C10.6533 30.6939 11.0886 31.1612 11.4033 31.7075C13.1633 34.7233 15.9867 33.8525 17.1417 33.3483C17.2329 32.3469 17.6781 31.4109 18.3975 30.7083C14.0158 30.2133 9.41417 28.5266 9.41417 20.9733C9.38512 19.0138 10.1142 17.1188 11.4492 15.6841C10.8427 13.9851 10.9116 12.118 11.6417 10.4683C11.6417 10.4683 13.2917 9.93663 17.0592 12.485C20.2881 11.6049 23.6936 11.6049 26.9225 12.485C30.69 9.93663 32.34 10.4683 32.34 10.4683C33.0646 12.1193 33.1334 13.9842 32.5325 15.6841C33.8649 17.1197 34.5908 19.0149 34.5583 20.9733C34.5583 28.545 29.975 30.2041 25.5658 30.6991C26.0389 31.1785 26.4033 31.7541 26.6343 32.3867C26.8652 33.0194 26.9572 33.6944 26.9042 34.3658V39.7741C26.9042 40.425 27.2617 40.9108 28.2608 40.6908C32.6982 39.2068 36.4629 36.1925 38.8814 32.1871C41.3 28.1817 42.2146 23.4465 41.4616 18.8285C40.7087 14.2105 38.3373 10.011 34.7717 6.9813C31.2062 3.95156 26.679 2.28922 22 2.29163Z"
 stroke="currentColor" 
 stroke-linecap="round" 
 stroke-linejoin="round"
 />
</svg>
