<svg width="44" height="44" viewBox="0 0 44 44" fill="none" xmlns="http://www.w3.org/2000/svg">
<path d="M5.56296 26.7143C2.97787 23.4373 1.57181 19.3852 1.57153 15.2114V4.96569C5.87956 2.7364 10.6595 1.57294 15.5101 1.57294C20.3608 1.57294 25.1406 2.7364 29.4487 4.96569" stroke="currentColor" stroke-linecap="round" stroke-linejoin="round"/>
<path d="M24.4829 42.24C23.383 42.4886 22.2399 42.4729 21.1473 42.1943C20.0547 41.9157 19.0437 41.382 18.1972 40.6371C15.2562 38.1019 13.0785 34.7986 11.9074 31.0965C10.7363 27.3945 10.618 23.4397 11.5657 19.6743L13.86 10.4971C18.843 9.23337 24.0617 9.22652 29.048 10.4772C34.0342 11.7279 38.632 14.1969 42.4286 17.6628L40.1343 26.8086C39.2094 30.5774 37.2566 34.0155 34.4932 36.74C31.7298 39.4646 28.2644 41.3686 24.4829 42.24Z" stroke="currentColor" stroke-linecap="round" stroke-linejoin="round"/>
<path d="M17.6316 20.46C18.0281 20.0451 18.5306 19.7466 19.0846 19.5971C19.6386 19.4475 20.223 19.4524 20.7744 19.6114C21.3142 19.7384 21.8107 20.0059 22.2136 20.3867C22.6166 20.7676 22.9116 21.2483 23.0687 21.78M30.0773 23.5714C30.4611 23.159 30.9487 22.8573 31.489 22.6979C32.0294 22.5386 32.6026 22.5274 33.1488 22.6655C33.695 22.8036 34.1939 23.0861 34.5935 23.4832C34.9931 23.8803 35.2786 24.3775 35.4202 24.9228" stroke="currentColor" stroke-linecap="round" stroke-linejoin="round"/>
</svg>
