<svg width="44" height="44" viewBox="0 0 44 44" fill="none" xmlns="http://www.w3.org/2000/svg">
<path d="M24.0625 30.25C24.0625 30.4323 23.9901 30.6072 23.8611 30.7361C23.7322 30.8651 23.5573 30.9375 23.375 30.9375C22.828 30.9375 22.3034 30.7202 21.9166 30.3334C21.5298 29.9466 21.3125 29.422 21.3125 28.875V22C21.3125 21.8177 21.2401 21.6428 21.1111 21.5139C20.9822 21.3849 20.8073 21.3125 20.625 21.3125C20.4427 21.3125 20.2678 21.2401 20.1389 21.1111C20.0099 20.9822 19.9375 20.8073 19.9375 20.625C19.9375 20.4427 20.0099 20.2678 20.1389 20.1389C20.2678 20.0099 20.4427 19.9375 20.625 19.9375C21.172 19.9375 21.6966 20.1548 22.0834 20.5416C22.4702 20.9284 22.6875 21.453 22.6875 22V28.875C22.6875 29.0573 22.7599 29.2322 22.8889 29.3611C23.0178 29.4901 23.1927 29.5625 23.375 29.5625C23.5573 29.5625 23.7322 29.6349 23.8611 29.7639C23.9901 29.8928 24.0625 30.0677 24.0625 30.25ZM21.3125 15.8125C21.5845 15.8125 21.8503 15.7319 22.0764 15.5808C22.3025 15.4297 22.4788 15.2149 22.5828 14.9637C22.6869 14.7124 22.7141 14.436 22.6611 14.1693C22.608 13.9025 22.4771 13.6575 22.2848 13.4652C22.0925 13.2729 21.8475 13.142 21.5808 13.0889C21.314 13.0359 21.0376 13.0631 20.7863 13.1672C20.5351 13.2712 20.3203 13.4475 20.1692 13.6736C20.0182 13.8997 19.9375 14.1656 19.9375 14.4375C19.9375 14.8022 20.0824 15.1519 20.3402 15.4098C20.5981 15.6676 20.9478 15.8125 21.3125 15.8125ZM39.1875 22C39.1875 25.3994 38.1795 28.7224 36.2909 31.5489C34.4023 34.3753 31.718 36.5783 28.5774 37.8792C25.4368 39.1801 21.9809 39.5204 18.6469 38.8572C15.3128 38.1941 12.2503 36.5571 9.84661 34.1534C7.44289 31.7497 5.80594 28.6872 5.14276 25.3531C4.47958 22.0191 4.81995 18.5632 6.12083 15.4226C7.42171 12.282 9.62467 9.5977 12.4511 7.70912C15.2776 5.82053 18.6006 4.8125 22 4.8125C26.5569 4.8175 30.9257 6.62993 34.1479 9.85213C37.3701 13.0743 39.1825 17.4431 39.1875 22ZM37.8125 22C37.8125 18.8726 36.8851 15.8154 35.1476 13.215C33.4101 10.6147 30.9405 8.58797 28.0512 7.39115C25.1618 6.19434 21.9825 5.8812 18.9151 6.49133C15.8478 7.10146 13.0303 8.60746 10.8189 10.8189C8.60746 13.0303 7.10147 15.8478 6.49134 18.9151C5.88121 21.9825 6.19435 25.1618 7.39116 28.0512C8.58797 30.9405 10.6147 33.4101 13.2151 35.1476C15.8154 36.8851 18.8726 37.8125 22 37.8125C26.1923 37.808 30.2117 36.1405 33.1761 33.1761C36.1405 30.2117 37.808 26.1923 37.8125 22Z" fill="currentColor"/>
</svg>
