<svg width="40" height="40" viewBox="0 0 50 51" fill="none" xmlns="http://www.w3.org/2000/svg">
<path d="M32.4896 8.93491H17.5105C12.6771 8.93491 8.75977 12.9313 8.75977 17.8606V33.1394C8.75977 38.0694 12.6778 42.0651 17.5112 42.0651H32.4889C37.3223 42.0651 41.2403 38.0687 41.2403 33.1387V17.8606C41.2403 12.9306 37.323 8.93491 32.4896 8.93491Z" stroke="currentColor" stroke-width="1.22222" stroke-miterlimit="10"/>
<path d="M24.9999 33.4971C29.33 33.4971 32.8402 29.9167 32.8402 25.5C32.8402 21.0833 29.33 17.5029 24.9999 17.5029C20.6699 17.5029 17.1597 21.0833 17.1597 25.5C17.1597 29.9167 20.6699 33.4971 24.9999 33.4971Z" stroke="currentColor" stroke-width="1.22222" stroke-miterlimit="10"/>
<path d="M34.5202 17.5029C35.448 17.5029 36.2001 16.7358 36.2001 15.7895C36.2001 14.8431 35.448 14.076 34.5202 14.076C33.5924 14.076 32.8403 14.8431 32.8403 15.7895C32.8403 16.7358 33.5924 17.5029 34.5202 17.5029Z" fill="currentColor"/>
</svg>
