<svg width="44" height="44" viewBox="0 0 44 44" fill="none" xmlns="http://www.w3.org/2000/svg">
<g clip-path="url(#clip0_647_612)">
<path 
d="M14.3367 13.0259C14.7164 13.0259 15.0242 12.7181 15.0242 12.3384C15.0242 11.9587 14.7164 11.6509 14.3367 11.6509C13.957 11.6509 13.6492 11.9587 13.6492 12.3384C13.6492 12.7181 13.957 13.0259 14.3367 13.0259Z" fill="currentColor"/>
<path d="M14.3367 15.5192V29.2509M30.3508 29.2509V20.4417C30.3484 19.0275 29.7856 17.6719 28.7856 16.672C27.7856 15.672 26.43 15.1091 25.0158 15.1067C23.6001 15.1067 22.2421 15.6685 21.2402 16.6687C20.2382 17.669 19.6741 19.0259 19.6717 20.4417M19.6717 20.4417V29.2509M19.6717 20.4417V15.5192" stroke="currentColor" stroke-linecap="round" stroke-linejoin="round"/>
<circle cx="22" cy="22" r="21.5" stroke="currentColor"/>
</g>
<defs>
<clipPath id="clip0_647_612">
<rect width="44" height="44" fill="white"/>
</clipPath>
</defs>
</svg>
