<svg width="44" height="44" viewBox="0 0 44 44" fill="none" xmlns="http://www.w3.org/2000/svg">
<path d="M14.3367 13.0259C14.7164 13.0259 15.0242 12.7181 15.0242 12.3384C15.0242 11.9587 14.7164 11.6509 14.3367 11.6509C13.957 11.6509 13.6492 11.9587 13.6492 12.3384C13.6492 12.7181 13.957 13.0259 14.3367 13.0259Z" fill="#505050"/>
<path d="M14.3367 15.5192V29.2509M30.3508 29.2509V20.4417C30.3484 19.0275 29.7856 17.6719 28.7856 16.672C27.7856 15.672 26.43 15.1091 25.0158 15.1067C23.6001 15.1067 22.2421 15.6685 21.2402 16.6687C20.2382 17.669 19.6741 19.0259 19.6717 20.4417M19.6717 20.4417V29.2509M19.6717 20.4417V15.5192" stroke="#505050" stroke-linecap="round" stroke-linejoin="round"/>
<path d="M37.1251 5.04163H6.87508C6.38885 5.04163 5.92254 5.23478 5.57872 5.5786C5.2349 5.92241 5.04175 6.38873 5.04175 6.87496V37.125C5.04175 37.6112 5.2349 38.0775 5.57872 38.4213C5.92254 38.7651 6.38885 38.9583 6.87508 38.9583H37.1251C37.6113 38.9583 38.0776 38.7651 38.4214 38.4213C38.7653 38.0775 38.9584 37.6112 38.9584 37.125V6.87496C38.9584 6.38873 38.7653 5.92241 38.4214 5.5786C38.0776 5.23478 37.6113 5.04163 37.1251 5.04163Z" stroke="#505050" stroke-linecap="round" stroke-linejoin="round"/>
</svg>
