<svg width="35" height="35" viewBox="0 0 44 44" fill="none" xmlns="http://www.w3.org/2000/svg">
<path d="M22.0046 14.2083C20.5459 14.2083 19.1469 14.7878 18.1155 15.8192C17.084 16.8507 16.5046 18.2496 16.5046 19.7083C16.5046 21.167 17.084 22.5659 18.1155 23.5974C19.1469 24.6288 20.5459 25.2083 22.0046 25.2083C23.4633 25.2083 24.8622 24.6288 25.8937 23.5974C26.9251 22.5659 27.5046 21.167 27.5046 19.7083C27.5046 18.2496 26.9251 16.8507 25.8937 15.8192C24.8622 14.7878 23.4633 14.2083 22.0046 14.2083ZM18.7962 19.7083C18.7962 18.8574 19.1343 18.0413 19.7359 17.4397C20.3376 16.838 21.1537 16.5 22.0046 16.5C22.8555 16.5 23.6715 16.838 24.2732 17.4397C24.8749 18.0413 25.2129 18.8574 25.2129 19.7083C25.2129 20.5592 24.8749 21.3752 24.2732 21.9769C23.6715 22.5786 22.8555 22.9166 22.0046 22.9166C21.1537 22.9166 20.3376 22.5786 19.7359 21.9769C19.1343 21.3752 18.7962 20.5592 18.7962 19.7083ZM33.9166 29.3333L24.6693 39.1508C24.3265 39.5148 23.9129 39.8049 23.4538 40.0031C22.9948 40.2014 22.5 40.3037 22 40.3037C21.4999 40.3037 21.0052 40.2014 20.5462 40.0031C20.0871 39.8049 19.6735 39.5148 19.3306 39.1508L10.0833 29.3333H10.1181L10.1026 29.315L10.0833 29.292C7.70979 26.4849 6.41034 22.9261 6.41665 19.25C6.41665 10.6434 13.3934 3.66663 22 3.66663C30.6066 3.66663 37.5833 10.6434 37.5833 19.25C37.5896 22.9261 36.2902 26.4849 33.9166 29.292L33.8974 29.315L33.8818 29.3333H33.9166ZM32.1356 27.8492C34.178 25.4501 35.2971 22.4007 35.2916 19.25C35.2916 11.9093 29.3406 5.95829 22 5.95829C14.6593 5.95829 8.70832 11.9093 8.70832 19.25C8.70258 22.4008 9.82176 25.4502 11.8644 27.8492L12.1467 28.182L20.999 37.5787C21.1275 37.7152 21.2827 37.824 21.4548 37.8983C21.6269 37.9727 21.8125 38.011 22 38.011C22.1875 38.011 22.373 37.9727 22.5452 37.8983C22.7173 37.824 22.8724 37.7152 23.001 37.5787L31.8532 28.182L32.1356 27.8492Z" fill="url(#paint0_linear_647_608)"/>
<defs>
<linearGradient id="paint0_linear_647_608" x1="73.5" y1="-61.9999" x2="14.5" y2="37.0001" gradientUnits="userSpaceOnUse">
<stop offset="0.739583" stop-color="#C5C7FF"/>
<stop offset="1" stop-color="#696EE1" stop-opacity="0.93"/>
</linearGradient>
</defs>
</svg>
