<svg width="40" height="40" viewBox="0 0 50 50" fill="none" xmlns="http://www.w3.org/2000/svg">
<path d="M45.1922 7.38839V38.6384H2.88452V7.38839M45.1922 7.38839H31.9711V4.26339C31.9848 3.84021 31.916 3.43331 31.7645 3.04268C31.613 2.65206 31.4202 2.3184 31.1861 2.04171C30.9519 1.76501 30.6765 1.54529 30.3597 1.38253C30.043 1.21977 29.6987 1.13839 29.3268 1.13839H18.7499C18.3918 1.12211 18.0475 1.20349 17.717 1.38253C17.3865 1.56156 17.1041 1.78943 16.87 2.06612C16.6359 2.34281 16.45 2.66833 16.3123 3.04268C16.1745 3.41703 16.1057 3.82393 16.1057 4.26339V7.38839M45.1922 7.38839L26.6826 23.0134M45.1922 7.38839L32.6922 17.9403L26.6826 23.0134M45.1922 7.38839H22.5961H2.88452M2.88452 7.38839H16.1057M2.88452 7.38839L21.3941 23.0134M2.88452 7.38839L13.9422 16.7228L21.3941 23.0134M16.1057 7.38839H29.3268H18.7499H16.1057ZM21.3941 23.0134H26.6826M21.3941 23.0134V26.1384M26.6826 23.0134V26.1384M21.3941 26.1384H26.6826M21.3941 26.1384H24.0384H26.6826" stroke="currentColor"/>
</svg>
