<svg width="18" height="18" viewBox="0 0 21 21" fill="none" xmlns="http://www.w3.org/2000/svg">
<path d="M18.9262 11.8994C18.8841 11.8572 18.8314 11.8273 18.7735 11.8129C18.7157 11.7984 18.6551 11.8 18.5981 11.8174C17.2899 12.2128 15.899 12.2458 14.5736 11.9131C13.2481 11.5803 12.0377 10.8942 11.0715 9.92782C10.1052 8.96145 9.41915 7.75103 9.08651 6.42553C8.75387 5.10003 8.78706 3.70912 9.18256 2.401C9.20011 2.34399 9.20179 2.28328 9.18742 2.22538C9.17305 2.16749 9.14316 2.1146 9.10098 2.07242C9.0588 2.03024 9.00592 2.00036 8.94802 1.98599C8.89013 1.97161 8.82941 1.97329 8.7724 1.99085C7.10894 2.50124 5.64893 3.52348 4.60029 4.91198C3.41552 6.49167 2.84033 8.44572 2.9803 10.4154C3.12028 12.385 3.96604 14.2381 5.36231 15.6343C6.75857 17.0306 8.61163 17.8764 10.5813 18.0163C12.5509 18.1563 14.505 17.5811 16.0847 16.3964C17.4727 15.3473 18.4944 13.887 19.0042 12.2234C19.0213 12.1674 19.0231 12.1078 19.0094 12.0508C18.9957 11.9938 18.967 11.9415 18.9262 11.8994ZM15.6926 15.8755C14.2393 16.9691 12.44 17.5012 10.6257 17.3737C8.81141 17.2463 7.10416 16.4679 5.81809 15.1818C4.53202 13.8958 3.75366 12.1885 3.62621 10.3742C3.49877 8.5599 4.03082 6.7606 5.12447 5.30737C5.96658 4.19378 7.09814 3.33262 8.39588 2.81772C8.09882 4.16442 8.14577 5.56424 8.53237 6.88801C8.91898 8.21178 9.63279 9.41684 10.6079 10.392C11.5831 11.3671 12.7882 12.0809 14.1119 12.4676C15.4357 12.8542 16.8355 12.9011 18.1822 12.6041C17.6673 13.9018 16.8062 15.0333 15.6926 15.8755Z" fill="#181818"/>
</svg>
