<svg width="18" height="18" viewBox="0 0 21 21" fill="none" xmlns="http://www.w3.org/2000/svg">
<g clip-path="url(#clip0_655_801)">
<path d="M10.5 3.68088C10.6547 3.68088 10.803 3.61943 10.9124 3.51003C11.0218 3.40063 11.0833 3.25226 11.0833 3.09755V1.11422C11.0833 0.959507 11.0218 0.811134 10.9124 0.701738C10.803 0.592342 10.6547 0.530884 10.5 0.530884C10.3452 0.530884 10.1969 0.592342 10.0875 0.701738C9.97808 0.811134 9.91663 0.959507 9.91663 1.11422V3.09755C9.91663 3.25226 9.97808 3.40063 10.0875 3.51003C10.1969 3.61943 10.3452 3.68088 10.5 3.68088Z" fill="#F6F6F6"/>
<path d="M10.5 17.3192C10.3452 17.3192 10.1969 17.3807 10.0875 17.4901C9.97808 17.5995 9.91663 17.7478 9.91663 17.9025V19.8859C9.91663 20.0406 9.97808 20.189 10.0875 20.2984C10.1969 20.4078 10.3452 20.4692 10.5 20.4692C10.6547 20.4692 10.803 20.4078 10.9124 20.2984C11.0218 20.189 11.0833 20.0406 11.0833 19.8859V17.9025C11.0833 17.7478 11.0218 17.5995 10.9124 17.4901C10.803 17.3807 10.6547 17.3192 10.5 17.3192Z" fill="#F6F6F6"/>
<path d="M4.85338 5.68171C4.96185 5.78031 5.10346 5.83446 5.25004 5.83338C5.32681 5.83382 5.40292 5.81911 5.47399 5.79008C5.54506 5.76105 5.6097 5.71827 5.66421 5.66421C5.71889 5.60998 5.76228 5.54546 5.7919 5.47438C5.82151 5.4033 5.83676 5.32705 5.83676 5.25004C5.83676 5.17304 5.82151 5.09679 5.7919 5.02571C5.76228 4.95462 5.71889 4.89011 5.66421 4.83588L4.27588 3.45338C4.16428 3.35781 4.02074 3.30787 3.87393 3.31355C3.72712 3.31922 3.58785 3.38008 3.48397 3.48397C3.38008 3.58785 3.31922 3.72712 3.31355 3.87393C3.30787 4.02074 3.35781 4.16428 3.45338 4.27588L4.85338 5.68171Z" fill="#F6F6F6"/>
<path d="M16.1466 15.3183C16.0922 15.2639 16.0277 15.2207 15.9566 15.1913C15.8855 15.1619 15.8094 15.1467 15.7324 15.1467C15.6555 15.1467 15.5794 15.1619 15.5083 15.1913C15.4372 15.2207 15.3727 15.2639 15.3183 15.3183C15.2639 15.3727 15.2207 15.4372 15.1913 15.5083C15.1619 15.5794 15.1467 15.6555 15.1467 15.7324C15.1467 15.8094 15.1619 15.8855 15.1913 15.9566C15.2207 16.0277 15.2639 16.0922 15.3183 16.1466L16.7241 17.5466C16.7781 17.6017 16.8426 17.6456 16.9137 17.6756C16.9848 17.7057 17.0611 17.7213 17.1383 17.7216C17.2921 17.7194 17.4389 17.6565 17.5466 17.5466C17.6553 17.4373 17.7162 17.2895 17.7162 17.1354C17.7162 16.9813 17.6553 16.8334 17.5466 16.7241L16.1466 15.3183Z" fill="#F6F6F6"/>
<path d="M3.68088 10.5C3.68088 10.3452 3.61943 10.1969 3.51003 10.0875C3.40063 9.97808 3.25226 9.91663 3.09755 9.91663H1.11422C0.959507 9.91663 0.811134 9.97808 0.701738 10.0875C0.592342 10.1969 0.530884 10.3452 0.530884 10.5C0.530884 10.6547 0.592342 10.803 0.701738 10.9124C0.811134 11.0218 0.959507 11.0833 1.11422 11.0833H3.09755C3.25226 11.0833 3.40063 11.0218 3.51003 10.9124C3.61943 10.803 3.68088 10.6547 3.68088 10.5Z" fill="#F6F6F6"/>
<path d="M19.8859 9.91663H17.9025C17.7478 9.91663 17.5995 9.97808 17.4901 10.0875C17.3807 10.1969 17.3192 10.3452 17.3192 10.5C17.3192 10.6547 17.3807 10.803 17.4901 10.9124C17.5995 11.0218 17.7478 11.0833 17.9025 11.0833H19.8859C20.0406 11.0833 20.189 11.0218 20.2984 10.9124C20.4078 10.803 20.4692 10.6547 20.4692 10.5C20.4692 10.3452 20.4078 10.1969 20.2984 10.0875C20.189 9.97808 20.0406 9.91663 19.8859 9.91663Z" fill="#F6F6F6"/>
<path d="M4.85332 15.3183L3.45332 16.7241C3.3714 16.8054 3.31542 16.9091 3.29245 17.0221C3.26947 17.1352 3.28054 17.2525 3.32424 17.3593C3.36795 17.466 3.44233 17.5575 3.53799 17.622C3.63365 17.6864 3.74628 17.7211 3.86165 17.7216C3.93883 17.7213 4.01518 17.7057 4.08627 17.6756C4.15736 17.6456 4.22179 17.6017 4.27582 17.5466L5.68165 16.1466C5.79149 16.0368 5.8532 15.8878 5.8532 15.7324C5.8532 15.5771 5.79149 15.4281 5.68165 15.3183C5.57181 15.2084 5.42283 15.1467 5.26748 15.1467C5.11214 15.1467 4.96316 15.2084 4.85332 15.3183Z" fill="#F6F6F6"/>
<path d="M15.75 5.83336C15.8268 5.83381 15.9029 5.81909 15.974 5.79006C16.0451 5.76103 16.1097 5.71826 16.1642 5.6642L17.5642 4.25836C17.6729 4.14907 17.7338 4.00122 17.7338 3.84711C17.7338 3.69301 17.6729 3.54516 17.5642 3.43586C17.4549 3.32722 17.3071 3.26624 17.153 3.26624C16.9989 3.26624 16.851 3.32722 16.7417 3.43586L15.3359 4.83586C15.2812 4.89009 15.2378 4.95461 15.2082 5.02569C15.1786 5.09678 15.1633 5.17302 15.1633 5.25003C15.1633 5.32704 15.1786 5.40328 15.2082 5.47437C15.2378 5.54545 15.2812 5.60997 15.3359 5.6642C15.3904 5.71826 15.455 5.76103 15.5261 5.79006C15.5972 5.81909 15.6733 5.83381 15.75 5.83336Z" fill="#F6F6F6"/>
<path d="M10.5758 4.52087C9.40399 4.50583 8.25414 4.83957 7.27246 5.47967C6.29078 6.11977 5.5216 7.03731 5.0627 8.11566C4.6038 9.19401 4.4759 10.3845 4.69527 11.5357C4.91464 12.6869 5.47137 13.7469 6.29468 14.5809C7.11799 15.4149 8.1707 15.9853 9.31899 16.2195C10.4673 16.4537 11.6593 16.3412 12.7435 15.8963C13.8276 15.4513 14.755 14.6941 15.4078 13.7207C16.0605 12.7474 16.4091 11.602 16.4092 10.43C16.4169 8.87357 15.8073 7.37752 14.7138 6.26984C13.6203 5.16215 12.1323 4.53321 10.5758 4.52087ZM10.5758 15.1667C9.63451 15.1818 8.71002 14.9163 7.92008 14.4042C7.13014 13.892 6.5105 13.1564 6.14006 12.2909C5.76962 11.4254 5.66516 10.4693 5.83997 9.5442C6.01478 8.61914 6.46095 7.76704 7.12167 7.09641C7.78239 6.42579 8.62775 5.96698 9.5501 5.77841C10.4725 5.58985 11.4301 5.68007 12.301 6.03758C13.1719 6.39509 13.9167 7.00371 14.4405 7.78594C14.9643 8.56817 15.2435 9.48861 15.2425 10.43C15.2487 11.6761 14.7613 12.8739 13.8868 13.7615C13.0122 14.6492 11.8218 15.1544 10.5758 15.1667Z" fill="#F6F6F6"/>
</g>
<defs>
<clipPath id="clip0_655_801">
<rect width="21" height="21" fill="white"/>
</clipPath>
</defs>
</svg>
